<svg
   xmlns:dc="http://purl.org/dc/elements/1.1/"
   xmlns:cc="http://creativecommons.org/ns#"
   xmlns:rdf="http://www.w3.org/1999/02/22-rdf-syntax-ns#"
   xmlns:svg="http://www.w3.org/2000/svg"
   xmlns="http://www.w3.org/2000/svg"
   xmlns:sodipodi="http://sodipodi.sourceforge.net/DTD/sodipodi-0.dtd"
   xmlns:inkscape="http://www.inkscape.org/namespaces/inkscape"
   version="1.1"
   viewBox="0 0 309.72818 119.49088"
   id="svg3827"
   sodipodi:docname="Brand.svg"
   inkscape:version="0.92.3 (d244b95, 2018-08-02)"
   inkscape:export-filename="/home/skip/Software/HubAndNeso/hub.1.0.5/src/components/Brands/brand.png"
   inkscape:export-xdpi="96"
   inkscape:export-ydpi="96">
  <metadata
     id="metadata3833">
    <rdf:RDF>
      <cc:Work
         rdf:about="">
        <dc:format>image/svg+xml</dc:format>
        <dc:type
           rdf:resource="http://purl.org/dc/dcmitype/StillImage" />
        <dc:title></dc:title>
      </cc:Work>
    </rdf:RDF>
  </metadata>
  <defs
     id="defs3831" />
  <sodipodi:namedview
     pagecolor="#ffffff"
     bordercolor="#666666"
     borderopacity="1"
     objecttolerance="10"
     gridtolerance="10"
     guidetolerance="10"
     inkscape:pageopacity="0"
     inkscape:pageshadow="2"
     inkscape:window-width="1920"
     inkscape:window-height="1004"
     id="namedview3829"
     showgrid="false"
     showguides="true"
     inkscape:guide-bbox="true"
     inkscape:zoom="4.0226309"
     inkscape:cx="164.987"
     inkscape:cy="48.046029"
     inkscape:window-x="1920"
     inkscape:window-y="0"
     inkscape:window-maximized="1"
     inkscape:current-layer="layer21" />
  <g
     inkscape:groupmode="layer"
     id="layer21"
     inkscape:label="Layer 1">
    <path
       style="display:inline;fill:#bb95d1;fill-opacity:1;stroke-width:0.12429676"
       d="M 10.362908,78.91037 C 8.6876784,75.17792 7.6751238,71.65433 7.0888973,67.51714 6.7756404,65.30639 6.7737438,59.502 7.0855873,57.38695 c 0.6309583,-4.2794 1.6104243,-7.69523 3.2789977,-11.4353 0.243993,-0.5469 0.455403,-1.00914 0.469798,-1.02719 0.02026,-0.0254 18.088343,10.37109 18.168203,10.4541 0.01039,0.0108 -0.145333,0.5093 -0.346062,1.10778 -0.738385,2.20148 -0.901943,3.27764 -0.901964,5.93463 -2.3e-5,2.69224 0.191398,3.93858 0.929579,6.05253 0.210215,0.602 0.409191,1.18136 0.44217,1.28748 0.05895,0.18967 -0.60765,0.58439 -15.017877,8.89268 l -3.06706,1.76834 z"
       id="path6963"
       inkscape:connector-curvature="0" />
    <path
       style="display:inline;fill:#fc746a;fill-opacity:1;stroke-width:0.12429676"
       d="m 22.644551,45.81349 c -4.785426,-2.76943 -8.828497,-5.10438 -8.984603,-5.18877 l -0.28383,-0.15343 0.647272,-0.92657 c 1.875666,-2.68503 5.185122,-6.21531 7.67447,-8.18656 6.24707,-4.9469 13.654977,-7.91319 21.611028,-8.65353 l 0.901151,-0.0839 v 10.49146 10.49145 l -0.9633,0.16094 c -1.432449,0.23931 -3.697597,1.02405 -5.214483,1.8065 -1.940359,1.00088 -3.448771,2.13711 -5.071246,3.81997 -0.77964,0.80865 -1.462112,1.46745 -1.516606,1.464 -0.05449,-0.004 -4.014428,-2.27218 -8.799853,-5.04161 z"
       id="path6965"
       inkscape:connector-curvature="0" />
    <path
       style="display:inline;fill:#49c5b1;fill-opacity:1;stroke-width:0.12429676"
       d="M 61.159576,50.09375 C 58.701161,47.08514 54.527637,44.63042 50.516335,43.83379 L 49.430503,43.61814 V 33.11603 22.61391 l 1.025448,0.0873 c 2.425226,0.20651 6.134106,0.9775 8.607551,1.78931 8.051134,2.64249 15.171863,7.86204 20.076733,14.71641 0.477,0.66659 0.867272,1.25526 0.867272,1.30817 0,0.0903 -17.891439,10.47056 -18.047013,10.47056 -0.03966,0 -0.400073,-0.40137 -0.800918,-0.89192 z"
       id="path6967"
       inkscape:connector-curvature="0" />
    <path
       style="display:inline;fill:#dc4397;fill-opacity:1;stroke-width:0.12429676"
       d="m 73.340513,75.07941 -9.084308,-5.2424 0.286914,-0.7061 C 65.977615,65.6006 66.102204,60.57717 64.851708,56.6886 64.646281,56.0498 64.518401,55.48845 64.56753,55.44115 64.711569,55.3025 82.318806,45.15914 82.485951,45.11852 c 0.351754,-0.0855 2.090798,4.40533 2.865251,7.39905 1.410412,5.45208 1.661486,11.13561 0.734001,16.61543 -0.59512,3.51612 -2.028832,8.00858 -3.423264,10.72661 l -0.237118,0.46219 z"
       id="path6969"
       inkscape:connector-curvature="0" />
    <path
       style="display:inline;fill:#69b3e7;fill-opacity:1;stroke-width:0.12429676"
       d="m 49.430503,91.79382 v -10.475 l 0.341816,-0.0699 c 4.501507,-0.91994 7.365764,-2.41284 10.377252,-5.40881 l 1.583255,-1.5751 9.061849,5.23286 9.061851,5.23285 -0.499192,0.71165 c -6.575197,9.37358 -17.489267,15.71629 -28.777086,16.72378 l -1.149745,0.10262 z"
       id="path6971"
       inkscape:connector-curvature="0" />
    <path
       style="display:inline;fill:#fedd00;fill-opacity:1;stroke-width:0.12429676"
       d="m 42.904923,102.23102 c -5.103212,-0.48674 -10.860891,-2.26674 -15.382292,-4.75546 -4.14618,-2.28219 -8.177036,-5.55946 -11.155067,-9.0696 -1.403123,-1.65383 -2.756887,-3.51783 -2.635053,-3.62822 0.04783,-0.0433 4.122108,-2.40546 9.053944,-5.24916 l 8.966974,-5.17037 1.536103,1.52903 c 2.804121,2.7912 5.756629,4.38592 9.621715,5.19693 l 1.298792,0.27252 v 10.48177 10.48177 l -0.403964,-0.0209 c -0.222181,-0.0115 -0.627699,-0.0422 -0.901152,-0.0683 z"
       id="path6973"
       inkscape:connector-curvature="0" />
    <path
       style="display:inline;fill:#808080"
       inkscape:connector-curvature="0"
       id="path3809"
       d="m 121.6597,5.1700029 h -6.5488 V 24.501003 h -3.783 V 5.1700029 h -6.5329 v -3.1695 h 16.865 z" />
    <path
       style="display:inline;fill:#808080"
       inkscape:connector-curvature="0"
       id="path3811"
       d="m 143.3397,24.500003 h -3.7989 v -9.7594 h -10.73 v 9.7594 h -3.783 V 2.0000029 h 3.783 v 9.4613001 h 10.729 V 2.0000029 h 3.7989 z" />
    <path
       style="display:inline;fill:#808080"
       inkscape:connector-curvature="0"
       id="path3813"
       d="m 161.7897,24.500003 h -12.796 V 2.0000029 h 12.287 v 3.1695 h -8.5039 v 6.3703001 h 7.8363 v 3.1538 h -7.8363 v 6.6527 h 9.0126 z" />
    <path
       style="display:inline;fill:#808080"
       inkscape:connector-curvature="0"
       id="path3817"
       d="m 162.2297,116.26 h -8.6359 V 82.642003 h -38.142 V 116.26 h -8.6359 V 42.546003 h 8.6359 v 32.333 h 38.142 v -32.333 h 8.6359 z" />
    <path
       style="display:inline;fill:#808080"
       inkscape:connector-curvature="0"
       id="path3819"
       d="m 235.5797,86.440003 q 0,31.047997 -28.015,31.047997 -26.833,0 -26.833,-29.865997 v -45.082 h 8.6359 v 44.516 q 0,22.668997 19.122,22.668997 18.454,0 18.454,-21.897997 v -45.287 h 8.6359 z" />
    <path
       style="display:inline;fill:#808080"
       inkscape:connector-curvature="0"
       id="path3821"
       d="M 254.0397,116.26 V 42.546003 h 20.973 q 9.5612,0 15.164,4.6778 5.6031,4.6778 5.6031,12.183 0,6.2713 -3.3927,10.898 -3.3927,4.6264 -9.3556,6.5798 v 0.20562 q 7.4536,0.87387 11.926,5.6545 4.4722,4.7292 4.4722,12.337 0,9.458397 -6.7854,15.317997 -6.7854,5.8601 -17.118,5.8601 z m 8.6359,-65.899997 v 23.8 h 8.8415 q 7.0938,0 11.155,-3.3927 4.0609,-3.4441 4.0609,-9.664 0,-10.743 -14.136,-10.743 z m 0,31.562 V 108.447 h 11.72 q 7.6078,0 11.772,-3.5983 4.2152,-3.5983 4.2152,-9.869597 0,-13.057 -17.786,-13.057 z" />
  </g>
</svg>
